<?xml version="1.0" encoding="UTF-8"?>
<svg version="1.1" xmlns="http://www.w3.org/2000/svg" width="1080" height="1080">
<path d="M0 0 C0.66556034 0.00023918 1.33112068 0.00047836 2.01684952 0.00072479 C25.05714157 0.01116645 47.75681257 0.93364288 70.5625 4.375 C71.30336853 4.48626221 72.04423706 4.59752441 72.80755615 4.7121582 C115.95796752 11.26582796 158.65150183 22.5402618 198.5625 40.375 C199.94985352 40.98964111 199.94985352 40.98964111 201.36523438 41.61669922 C236.3225572 57.15392724 269.10893468 76.17065141 299.5625 99.375 C300.14547852 99.81908203 300.72845703 100.26316406 301.32910156 100.72070312 C314.08151674 110.48701558 326.20709646 120.94908747 337.96142578 131.89160156 C339.68315012 133.48678257 341.41721127 135.06785683 343.15234375 136.6484375 C352.08348918 144.82632583 360.4213343 153.41474562 368.5625 162.375 C369.82900391 163.75171875 369.82900391 163.75171875 371.12109375 165.15625 C376.49914286 171.0469381 381.57735993 177.14973448 386.5625 183.375 C387.19260986 184.15568848 387.19260986 184.15568848 387.83544922 184.95214844 C402.91426773 203.65949984 416.4907943 223.60490129 428.5625 244.375 C429.05121582 245.2103125 429.53993164 246.045625 430.04345703 246.90625 C470.30867112 315.95358971 495.44798374 398.11632011 495.765625 478.48828125 C495.77268463 479.68885162 495.77974426 480.889422 495.78701782 482.12637329 C495.80452709 485.98012349 495.81100286 489.83371131 495.8125 493.6875 C495.81294186 494.67503202 495.81294186 494.67503202 495.81339264 495.68251419 C495.81488939 516.40781606 495.47824453 536.82445833 492.5625 557.375 C492.46304077 558.07874756 492.36358154 558.78249512 492.2611084 559.50756836 C481.39325929 635.703964 455.01717761 710.20353451 410.79736328 773.60302734 C409.43558436 775.55711817 408.09140739 777.52282303 406.74609375 779.48828125 C400.25448936 788.89838454 393.31928471 797.83709269 386.00976562 806.62353516 C384.01624408 809.03607287 382.07648929 811.49091065 380.125 813.9375 C375.37487509 819.74030827 370.24659331 825.17052044 365.09765625 830.6171875 C362.8901656 832.95284733 360.70753113 835.30568838 358.55859375 837.6953125 C346.27166255 851.33680701 332.59871569 863.5653184 318.5625 875.375 C317.92876465 875.90834961 317.2950293 876.44169922 316.64208984 876.99121094 C245.17440144 936.80206853 155.82938402 974.62159443 63.5625 986.375 C62.26618652 986.54016113 60.96987305 986.70532227 59.63427734 986.87548828 C-28.95184452 997.50494353 -117.54916053 982.8383052 -256.4375 918.375 C-257.38206055 917.7975 -258.32662109 917.22 -259.29980469 916.625 C-272.50609751 908.51198089 -285.13228563 899.79524619 -297.4375 890.375 C-298.40357178 889.63854248 -298.40357178 889.63854248 -299.38916016 888.88720703 C-314.69055816 877.18185979 -329.02660015 864.36519241 -343.125 851.25 C-344.05203735 850.38882568 -344.05203735 850.38882568 -344.99780273 849.51025391 C-351.10347983 843.80857496 -356.97734011 837.99660947 -362.4296875 831.6640625 C-364.38090178 829.43952637 -366.37875321 827.26371892 -368.39160156 825.0949707 C-373.99681261 819.04962539 -379.30253198 812.82864178 -384.4375 806.375 C-384.84935547 805.86275879 -385.26121094 805.35051758 -385.68554688 804.82275391 C-398.36476668 789.04999514 -409.89221156 772.64667599 -420.4375 755.375 C-420.8396875 754.72370117 -421.241875 754.07240234 -421.65625 753.40136719 C-435.95698479 730.17475148 -448.55605107 705.79607446 -458.4375 680.375 C-458.86611328 679.27881348 -459.29472656 678.18262695 -459.73632812 677.05322266 C-474.52695902 638.9359373 -484.55087666 599.95489249 -490.14324951 559.49530029 C-490.41563895 557.53252565 -490.69787017 555.57112362 -490.98095703 553.60986328 C-496.41181104 514.47211994 -496.09789836 471.45798224 -490.4375 432.375 C-490.23125141 430.90448682 -490.02520647 429.43394506 -489.81933594 427.96337891 C-480.28280363 360.70961077 -458.09838513 295.32766025 -422.4375 237.375 C-421.56327393 235.95018311 -421.56327393 235.95018311 -420.67138672 234.49658203 C-403.89402765 207.29994117 -384.59153143 182.31148903 -362.86132812 158.91210938 C-361.34457586 157.27468271 -359.83573097 155.63022489 -358.328125 153.984375 C-351.42973058 146.4605062 -344.53583817 139.11377753 -336.79296875 132.44921875 C-334.4212828 130.36071918 -332.10870494 128.21994616 -329.79956055 126.06298828 C-323.548079 120.22802913 -317.14064667 114.69160538 -310.4375 109.375 C-309.38269216 108.52749351 -308.32800975 107.67983088 -307.2734375 106.83203125 C-237.35960772 50.93363267 -154.03649244 16.64833771 -65.625 4.1875 C-64.5306665 4.0325708 -63.43633301 3.8776416 -62.30883789 3.71801758 C-58.6892219 3.23028674 -55.06613041 2.78892892 -51.4375 2.375 C-50.68123322 2.28706177 -49.92496643 2.19912354 -49.14578247 2.10852051 C-32.77150202 0.25870555 -16.46692244 -0.02527697 0 0 Z " fill="#364A5E" transform="translate(538.4375,44.625)"/>
<path d="M0 0 C1.46984178 -0.0169965 2.93963481 -0.03875494 4.4093436 -0.06482816 C8.42704016 -0.12215198 12.44204453 -0.11135759 16.45997906 -0.08873081 C20.80128335 -0.0761567 25.14193201 -0.12682763 29.48298645 -0.16897583 C37.98028135 -0.24093012 46.47663031 -0.25274273 54.97418375 -0.24158689 C61.88514959 -0.23313578 68.7958269 -0.24397734 75.70675278 -0.26840973 C76.69158227 -0.27182763 77.67641177 -0.27524553 78.69108459 -0.278767 C80.69202658 -0.28571807 82.69296854 -0.29267866 84.69391046 -0.29964867 C103.44937622 -0.36202144 122.20430263 -0.352368 140.95981096 -0.32113996 C158.0950854 -0.2949045 175.22856134 -0.36068615 192.36346127 -0.46989331 C209.97865405 -0.58129279 227.59299405 -0.62931239 245.2085427 -0.60968328 C255.08999744 -0.59980784 264.96988537 -0.61478231 274.85104752 -0.69643402 C283.26609424 -0.76530332 291.67864251 -0.77411229 300.09374566 -0.70697376 C304.38289951 -0.67437632 308.6674675 -0.66833388 312.95629311 -0.73733902 C341.30291785 -1.1628711 341.30291785 -1.1628711 350.05507934 7.2749908 C352.55494299 10.12594367 354.75678007 13.06757299 356.84282279 16.23196936 C361.25570652 22.68003447 367.00406689 28.26350785 372.35202026 33.93719482 C376.44496751 38.29902182 380.48368702 42.68219492 384.38327026 47.21844482 C387.30994386 50.51675951 390.33566024 53.72099315 393.35202026 56.93719482 C397.4387321 61.29466189 401.50287977 65.64759049 405.35202026 70.21844482 C407.14864598 72.21157647 409.00414799 74.0855317 410.91452026 75.96844482 C411.55969604 76.61942139 412.20487183 77.27039795 412.86959839 77.94110107 C414.16791984 79.24837647 415.48393871 80.53836451 416.81881714 81.80828857 C417.41758667 82.41801514 418.0163562 83.0277417 418.63327026 83.65594482 C419.18047729 84.19155029 419.72768433 84.72715576 420.29147339 85.2789917 C422.1853421 89.13299708 420.91070058 93.57935782 419.71234155 97.5643841 C418.91158141 99.81066979 418.06140294 102.0313181 417.18994141 104.25111389 C416.54815577 105.93914203 415.90855515 107.62800228 415.27096939 109.31762123 C414.94813555 110.17099957 414.62530171 111.0243779 414.29268503 111.90361619 C412.845578 115.80124218 411.50891655 119.73305325 410.19012451 123.67564392 C409.930415 124.45149137 409.67070549 125.22733882 409.403126 126.0266968 C408.58156498 128.48854126 407.76338334 130.95149366 406.94528198 133.41448975 C406.34178458 135.22390514 405.73802685 137.03323372 405.1340332 138.84248352 C403.51572878 143.69261036 401.90111749 148.54395883 400.2873168 153.39558578 C398.58604231 158.50829229 396.88154438 163.61992413 395.17749023 168.73170471 C392.31939382 177.30692598 389.46360552 185.88291304 386.60934448 194.45941162 C383.3224887 204.33571604 380.03249101 214.21096925 376.74069393 224.08562773 C373.21514075 234.6616088 369.69187813 245.2383519 366.16927958 255.81531739 C365.16278484 258.83691956 364.1558712 261.85838185 363.14886093 264.87981224 C361.55995926 269.64753118 359.97260867 274.41576395 358.3863945 279.18437767 C357.80847756 280.92101718 357.23007466 282.65749507 356.65111542 284.39378738 C353.99450564 292.36194859 351.36258784 300.33358912 348.87950134 308.35772705 C345.98155669 317.71780771 342.87099205 327.00530139 339.76437378 336.29779053 C339.11627448 338.24016396 338.46831412 340.18258376 337.82048035 342.12504578 C336.43383827 346.28183219 335.04626749 350.43830696 333.65796089 354.59453773 C331.44669964 361.21463712 329.23781352 367.83552755 327.0292511 374.45652771 C321.93066857 389.74028773 316.829119 405.02305699 311.72742462 420.3057785 C307.07038018 434.25655427 302.41402663 448.20755967 297.76014847 462.15939206 C295.93195828 467.63987077 294.10315464 473.12014293 292.2727375 478.59987831 C283.57029001 504.65300502 274.96214539 530.73402973 266.48967987 556.86288947 C263.37254486 566.46806898 260.18666719 576.050068 256.97702026 585.62469482 C256.41436637 587.30758609 255.85186786 588.99052931 255.28952026 590.67352295 C253.97876188 594.59533193 252.6660789 598.51649047 251.35202026 602.43719482 C247.02056003 596.98451191 246.20523113 590.79640092 244.91842651 584.10906982 C244.33311632 581.34802034 243.61565214 578.65403588 242.85202026 575.93719482 C241.61903904 571.55050786 240.6655554 567.16992552 239.81686401 562.69500732 C239.34286134 560.23093984 239.34286134 560.23093984 238.35202026 557.06219482 C237.47058295 553.86698455 236.91404401 550.83180479 236.41452026 547.56219482 C235.69988678 543.03805844 234.62418274 538.95407266 233.07467651 534.65594482 C232.01938225 531.41590622 231.43965545 528.11870616 230.81686401 524.77313232 C230.34266781 522.22386899 230.34266781 522.22386899 229.35202026 518.93719482 C228.56108885 516.16893488 227.95109566 513.50754155 227.41452026 510.68719482 C226.714277 507.04813534 225.85476047 503.50473283 224.85202026 499.93719482 C223.61975385 495.55305102 222.66762638 491.17459555 221.81686401 486.70281982 C221.41832289 484.7603505 220.89677377 482.8438321 220.35202026 480.93719482 C219.56108885 478.16893488 218.95109566 475.50754155 218.41452026 472.68719482 C217.714277 469.04813534 216.85476047 465.50473283 215.85202026 461.93719482 C214.61903904 457.55050786 213.6655554 453.16992552 212.81686401 448.69500732 C212.34286134 446.23093984 212.34286134 446.23093984 211.35202026 443.06219482 C210.47058295 439.86698455 209.91404401 436.83180479 209.41452026 433.56219482 C208.69901318 429.03252795 207.61906735 424.94458571 206.07077026 420.64031982 C205.04320468 417.49060793 204.48754647 414.29177757 203.88327026 411.03875732 C203.32316741 408.29590068 202.61097719 405.63149193 201.85202026 402.93719482 C200.61975385 398.55305102 199.66762638 394.17459555 198.81686401 389.70281982 C198.41832289 387.7603505 197.89677377 385.8438321 197.35202026 383.93719482 C196.31488031 380.30720499 195.56826098 376.69316807 194.85983276 372.98797607 C194.24114123 369.88024092 193.49467706 366.81002753 192.71920776 363.73797607 C191.37391657 355.30843869 193.93568585 350.31833396 197.79342651 342.83563232 C198.35392197 341.72217438 198.91441742 340.60871643 199.49189758 339.46151733 C200.98346358 336.5053785 202.4870217 333.55599932 203.99661255 330.60906982 C205.50698085 327.65240764 206.99964073 324.68682729 208.49459839 321.72235107 C213.46849056 311.88689247 218.46962337 302.10131535 223.90437317 292.51034546 C226.18299282 287.67315728 226.8850214 282.72667173 227.35202026 277.43719482 C226.69202026 277.43719482 226.03202026 277.43719482 225.35202026 277.43719482 C224.41190762 275.58435147 223.47506434 273.72984914 222.53952026 271.87469482 C222.01744995 270.84215576 221.49537964 269.8096167 220.95748901 268.74578857 C219.92994083 266.62818929 218.95443647 264.48403608 218.04830933 262.31170654 C216.1265627 257.80328815 213.86618687 253.48238203 211.60592651 249.13641357 C210.67677313 247.33634372 209.74774044 245.53621155 208.81881714 243.73602295 C207.36799436 240.93116424 205.91574823 238.12706102 204.46115112 235.32415771 C203.04706026 232.59696535 201.6386955 229.8668734 200.23092651 227.13641357 C199.80163345 226.31316086 199.37234039 225.48990814 198.93003845 224.64170837 C196.41929443 219.76335612 194.26753187 214.84532478 192.27674866 209.73384094 C191.04006046 206.66241459 189.57089121 203.75015656 188.03170776 200.82000732 C187.7312706 200.24415894 187.43083344 199.66831055 187.12129211 199.07501221 C186.1606429 197.23522303 185.19381541 195.39876038 184.22702026 193.56219482 C182.88215708 190.99053601 181.54077415 188.41706895 180.19967651 185.84344482 C179.86918808 185.21016266 179.53869965 184.57688049 179.19819641 183.92440796 C175.88008978 177.55556865 172.66864428 171.13503789 169.49801636 164.69158936 C167.2651117 160.17500958 164.89457352 155.7876584 162.35202026 151.43719482 C158.86307379 154.49186315 157.47157028 157.1379407 155.97702026 161.49969482 C154.03827422 166.83273779 151.76314491 171.63055449 148.87936401 176.51141357 C147.58652831 178.98797098 146.5817241 181.36310498 145.58639526 183.96453857 C143.09358526 190.33307884 139.88094919 196.28539778 136.66452026 202.31219482 C135.49001261 204.51583134 134.31926661 206.72147805 133.15280151 208.92938232 C132.63886841 209.89215088 132.1249353 210.85491943 131.59542847 211.84686279 C130.52404406 214.07882599 129.82638116 216.02012828 129.35202026 218.43719482 C128.69202026 218.43719482 128.03202026 218.43719482 127.35202026 218.43719482 C127.14407837 219.51009766 126.93613647 220.58300049 126.72189331 221.68841553 C125.21399049 227.68657996 122.27175277 232.95756268 119.43405151 238.41766357 C118.25080677 240.73847315 117.06787326 243.05944143 115.88522339 245.3805542 C114.0219414 249.01808006 112.15106557 252.65164671 110.27511597 256.28265381 C108.45936108 259.79944264 106.66578087 263.32734339 104.87155151 266.85516357 C104.30394608 267.94169724 103.73634064 269.0282309 103.15153503 270.14768982 C102.63737534 271.16256973 102.12321564 272.17744965 101.59347534 273.2230835 C101.13539993 274.11162521 100.67732452 275.00016693 100.20536804 275.91563416 C98.99659048 279.48745569 99.69535041 281.94812657 101.18405151 285.32391357 C101.5076062 285.91817139 101.83116089 286.5124292 102.16452026 287.12469482 C105.1907664 292.94524852 107.89524124 299.02148116 109.35202026 305.43719482 C110.01202026 305.43719482 110.67202026 305.43719482 111.35202026 305.43719482 C111.74985718 306.46030762 111.74985718 306.46030762 112.1557312 307.50408936 C116.03061915 317.15605383 120.8251669 326.23225128 125.71530151 335.39910889 C126.79417668 337.42628865 127.86265311 339.45869122 128.93014526 341.49188232 C129.25927917 342.10135712 129.58841309 342.71083191 129.92752075 343.33877563 C131.85845849 347.03062782 132.89045112 350.29803809 133.35202026 354.43719482 C134.01202026 354.43719482 134.67202026 354.43719482 135.35202026 354.43719482 C135.02786649 361.04322524 134.43423037 366.94221639 132.10983276 373.14813232 C130.94183652 376.67620344 130.42911083 380.29061235 129.81686401 383.94891357 C129.26750119 386.88962046 128.29742384 389.60098411 127.35202026 392.43719482 C127.02105586 394.1837969 126.71073864 395.93436542 126.41452026 397.68719482 C125.78166885 401.37467553 124.98205032 404.87106982 123.85202026 408.43719482 C122.74844007 411.92450824 121.95996124 415.33007835 121.35202026 418.93719482 C120.59921996 423.40380997 119.44110797 427.57816428 118.07467651 431.89031982 C117.03828825 435.5428882 116.44891507 439.2439991 115.81686401 442.98406982 C115.26254883 445.90936339 114.29295221 448.614399 113.35202026 451.43719482 C113.02105586 453.1837969 112.71073864 454.93436542 112.41452026 456.68719482 C111.63383241 461.23608469 110.46685724 465.49690526 109.07467651 469.89031982 C108.03828825 473.5428882 107.44891507 477.2439991 106.81686401 480.98406982 C106.26254883 483.90936339 105.29295221 486.614399 104.35202026 489.43719482 C104.02105586 491.1837969 103.71073864 492.93436542 103.41452026 494.68719482 C102.78166885 498.37467553 101.98205032 501.87106982 100.85202026 505.43719482 C99.74844007 508.92450824 98.95996124 512.33007835 98.35202026 515.93719482 C97.59921996 520.40380997 96.44110797 524.57816428 95.07467651 528.89031982 C94.03828825 532.5428882 93.44891507 536.2439991 92.81686401 539.98406982 C92.26254883 542.90936339 91.29295221 545.614399 90.35202026 548.43719482 C89.99930633 550.26689838 89.66796184 552.10078443 89.35202026 553.93719482 C88.66224705 557.9465016 87.63865722 561.57728395 86.35202026 565.43719482 C86.02105586 567.1837969 85.71073864 568.93436542 85.41452026 570.68719482 C84.63403308 575.23491544 83.46854006 579.49469275 82.07467651 583.88641357 C81.04799522 587.51032106 80.45611938 591.17552718 79.87936401 594.89422607 C79.32308615 597.57672156 78.43803781 599.92718746 77.35202026 602.43719482 C75.66424537 599.90553249 74.81032455 598.18535453 73.87457275 595.37234497 C73.59730347 594.54610626 73.32003418 593.71986755 73.03436279 592.86859131 C72.58711349 591.51302124 72.58711349 591.51302124 72.13082886 590.13006592 C71.81176575 589.17492096 71.49270264 588.219776 71.16397095 587.23568726 C70.10510386 584.06210397 69.05272173 580.88641054 68.00045776 577.71063232 C67.26054368 575.48782875 66.52027313 573.26514381 65.77966309 571.04257202 C64.22177949 566.3643087 62.66684987 561.68507785 61.11422729 557.00506592 C59.14835972 551.07953437 57.17749173 545.15568328 55.20459557 539.23248863 C53.30134154 533.51749311 51.40086829 527.80157389 49.50045776 522.08563232 C49.14832592 521.02735607 48.79619408 519.96907982 48.43339157 518.87873459 C44.6948363 507.63732196 41.0013348 496.38403281 37.40768433 485.09539795 C33.55195724 472.98981645 29.55661062 460.93316412 25.52625656 448.88473892 C24.26846164 445.12448341 23.01268933 441.36355537 21.75744629 437.60244751 C18.85940462 428.92016621 15.95836184 420.23888846 13.05711365 411.55767822 C9.76547373 401.70826224 6.47525201 391.85837463 3.18795776 382.00750732 C2.97345081 381.36479417 2.75894385 380.72208101 2.53793669 380.0598917 C-3.3330274 362.46767874 -9.14510135 344.85778708 -14.86206818 327.2149086 C-19.14658982 313.99486994 -23.50695938 300.80191053 -27.92141724 287.62469482 C-28.36502028 286.29977335 -28.36502028 286.29977335 -28.81758499 284.94808578 C-31.50119618 276.93340156 -34.18812143 268.91983456 -36.88137817 260.90838623 C-38.38613809 256.43160131 -39.88657348 251.95338704 -41.38420486 247.47421265 C-41.94631752 245.795892 -42.51009125 244.11812669 -43.07560349 242.44094849 C-43.8516996 240.13895979 -44.62230252 237.8352021 -45.39163208 235.53094482 C-45.62210739 234.85187576 -45.8525827 234.1728067 -46.09004211 233.47315979 C-47.02505708 230.65601173 -47.64797974 228.42950964 -47.64797974 225.43719482 C-48.30797974 225.43719482 -48.96797974 225.43719482 -49.64797974 225.43719482 C-54.94559114 209.59119436 -60.23971494 193.74403362 -65.52975178 177.89550304 C-67.98638688 170.5358864 -70.44413831 163.17664618 -72.90457153 155.81829834 C-75.05044128 149.40069697 -77.19416187 142.98238233 -79.33536309 136.56322175 C-80.46794564 133.168069 -81.60156156 129.77326963 -82.73775673 126.37932396 C-84.00973371 122.57964817 -85.27690747 118.77838659 -86.54373169 114.97698975 C-86.91632614 113.86639694 -87.28892059 112.75580414 -87.67280579 111.61155701 C-89.34375528 106.58554917 -90.96752534 101.54597551 -92.46699524 96.46595764 C-92.71999988 95.61618001 -92.97300451 94.76640238 -93.23367596 93.89087391 C-93.71012745 91.06913027 -93.46847078 89.16965024 -92.64797974 86.43719482 C-90.60891724 84.04266357 -90.60891724 84.04266357 -88.02297974 81.62469482 C-84.98478775 78.70665732 -82.01271015 75.82556799 -79.27297974 72.62469482 C-76.22603443 69.06992531 -73.07927858 65.6212489 -69.89797974 62.18719482 C-69.3834021 61.63144775 -68.86882446 61.07570068 -68.33865356 60.50311279 C-67.29066641 59.37150184 -66.24257037 58.23999172 -65.19436646 57.10858154 C-59.49089796 50.94408118 -53.81748976 44.75211608 -48.21047974 38.49969482 C-44.68481261 34.56892412 -41.11183127 30.68509211 -37.52297974 26.81219482 C-34.31395679 23.34760807 -31.12062456 19.87740868 -28.02297974 16.31219482 C-27.520538 15.7500834 -27.01809627 15.18797198 -26.50042903 14.60882688 C-24.56249818 12.39131959 -24.56249818 12.39131959 -22.64585793 9.70305324 C-15.88416193 1.0988676 -10.59930178 -0.16829212 0 0 Z " fill="#C8B79B" transform="translate(373.6479797363281,138.56280517578125)"/>
<path d="M0 0 C3.42104328 0.56335783 4.79311788 1.49990822 6.91796875 4.2109375 C7.70905029 5.20432129 7.70905029 5.20432129 8.51611328 6.21777344 C9.34344971 7.28560059 9.34344971 7.28560059 10.1875 8.375 C11.35542133 9.84639181 12.5233902 11.31774588 13.69140625 12.7890625 C14.25875488 13.51125977 14.82610352 14.23345703 15.41064453 14.97753906 C21.76270008 23.06055414 28.40858995 30.79710364 35.42529297 38.30761719 C37.11734103 40.12610978 38.79516184 41.95714087 40.47265625 43.7890625 C53.21641326 57.6358078 66.90995418 70.29510876 81.23144531 82.48876953 C82.94169601 83.95017922 84.64002752 85.42433555 86.3359375 86.90234375 C93.8817891 93.44314294 101.7522906 99.37455043 110 105 C110.80034668 105.54591797 111.60069336 106.09183594 112.42529297 106.65429688 C123.41829143 114.12186198 134.52329497 121.30032554 146 128 C146.91136719 128.55945313 147.82273437 129.11890625 148.76171875 129.6953125 C150.88077262 130.93050271 152.60290895 131.55609425 155 132 C155 132.66 155 133.32 155 134 C155.825 134.2475 156.65 134.495 157.5 134.75 C160.83788451 135.94210161 163.83482117 137.36283469 166.96875 138.99609375 C168.92736537 139.96410173 170.89350368 140.73350138 172.9375 141.5 C176 143 176 143 176.796875 144.87109375 C177.09268774 147.97143876 175.61147058 150.01149621 174.16796875 152.671875 C172.91427319 155.17088019 172.0212723 157.66528222 171.125 160.3125 C169.40970689 165.20176067 167.18840515 169.54414886 164.5625 174.00390625 C163.25609324 176.50894121 162.23661064 178.90513583 161.23046875 181.53515625 C158.73951349 187.90126014 155.52753493 193.85081496 152.3125 199.875 C151.13799235 202.07863651 149.96724634 204.28428322 148.80078125 206.4921875 C148.28684814 207.45495605 147.77291504 208.41772461 147.2434082 209.40966797 C146.1720238 211.64163116 145.47436089 213.58293345 145 216 C144.34 216 143.68 216 143 216 C142.79205811 217.07290283 142.58411621 218.14580566 142.36987305 219.2512207 C140.86197022 225.24938514 137.9197325 230.52036786 135.08203125 235.98046875 C133.89878651 238.30127833 132.71585299 240.6222466 131.53320312 242.94335938 C129.66992113 246.58088524 127.7990453 250.21445189 125.9230957 253.84545898 C124.10734082 257.36224781 122.3137606 260.89014856 120.51953125 264.41796875 C119.95192581 265.50450241 119.38432037 266.59103607 118.79951477 267.710495 C118.28535507 268.72537491 117.77119537 269.74025482 117.24145508 270.78588867 C116.78337967 271.67443039 116.32530426 272.56297211 115.85334778 273.47843933 C114.64457021 277.05026086 115.34333015 279.51093174 116.83203125 282.88671875 C117.15558594 283.48097656 117.47914063 284.07523437 117.8125 284.6875 C120.83874614 290.5080537 123.54322098 296.58428634 125 303 C125.66 303 126.32 303 127 303 C127.39783691 304.02311279 127.39783691 304.02311279 127.80371094 305.06689453 C131.67859888 314.71885901 136.47314664 323.79505646 141.36328125 332.96191406 C142.44215642 334.98909382 143.51063285 337.0214964 144.578125 339.0546875 C144.90725891 339.66416229 145.23639282 340.27363708 145.57550049 340.90158081 C147.50643823 344.593433 148.53843086 347.86084326 149 352 C149.66 352 150.32 352 151 352 C150.67584622 358.60603042 150.08221011 364.50502156 147.7578125 370.7109375 C146.58981626 374.23900862 146.07709057 377.85341753 145.46484375 381.51171875 C144.91548093 384.45242563 143.94540357 387.16378928 143 390 C142.66903559 391.74660208 142.35871838 393.49717059 142.0625 395.25 C141.42964858 398.93748071 140.63003006 402.433875 139.5 406 C138.3964198 409.48731342 137.60794098 412.89288353 137 416.5 C136.24719969 420.96661515 135.0890877 425.14096946 133.72265625 429.453125 C132.68626798 433.10569337 132.09689481 436.80680428 131.46484375 440.546875 C130.91052857 443.47216857 129.94093194 446.17720417 129 449 C128.66903559 450.74660208 128.35871838 452.49717059 128.0625 454.25 C127.28181214 458.79888986 126.11483698 463.05971044 124.72265625 467.453125 C123.68626798 471.10569337 123.09689481 474.80680428 122.46484375 478.546875 C121.91052857 481.47216857 120.94093194 484.17720417 120 487 C119.66903559 488.74660208 119.35871838 490.49717059 119.0625 492.25 C118.42964858 495.93748071 117.63003006 499.433875 116.5 503 C115.3964198 506.48731342 114.60794098 509.89288353 114 513.5 C113.24719969 517.96661515 112.0890877 522.14096946 110.72265625 526.453125 C109.68626798 530.10569337 109.09689481 533.80680428 108.46484375 537.546875 C107.91052857 540.47216857 106.94093194 543.17720417 106 546 C105.64728606 547.82970356 105.31594157 549.6635896 105 551.5 C104.31022679 555.50930678 103.28663696 559.14008913 102 563 C101.66903559 564.74660208 101.35871838 566.49717059 101.0625 568.25 C100.28201281 572.79772061 99.1165198 577.05749793 97.72265625 581.44921875 C96.69597496 585.07312624 96.10409912 588.73833235 95.52734375 592.45703125 C94.97106588 595.13952674 94.08601755 597.48999263 93 600 C91.31222511 597.46833766 90.45830428 595.74815971 89.52255249 592.93515015 C89.2452832 592.10891144 88.96801392 591.28267273 88.68234253 590.43139648 C88.23509323 589.07582642 88.23509323 589.07582642 87.77880859 587.69287109 C87.45974548 586.73772614 87.14068237 585.78258118 86.81195068 584.79849243 C85.75308359 581.62490914 84.70070147 578.44921571 83.6484375 575.2734375 C82.90852342 573.05063393 82.16825286 570.82794898 81.42764282 568.6053772 C79.86975922 563.92711388 78.31482961 559.24788302 76.76220703 554.56787109 C74.79633945 548.64233954 72.82547147 542.71848845 70.8525753 536.79529381 C68.94932127 531.08029828 67.04884803 525.36437906 65.1484375 519.6484375 C64.79630566 518.59016125 64.44417381 517.53188499 64.08137131 516.44153976 C60.34281604 505.20012713 56.64931453 493.94683798 53.05566406 482.65820312 C49.19993698 470.55262163 45.20459036 458.4959693 41.1742363 446.4475441 C39.91644137 442.68728859 38.66066907 438.92636055 37.40542603 435.16525269 C34.50738436 426.48297139 31.60634158 417.80169364 28.70509338 409.1204834 C25.41345347 399.27106741 22.12323175 389.42117981 18.8359375 379.5703125 C18.62143054 378.92759934 18.40692359 378.28488619 18.18591642 377.62269688 C12.31495234 360.03048391 6.50287839 342.42059225 0.78591156 324.77771378 C-3.49861008 311.55767511 -7.85897964 298.36471571 -12.2734375 285.1875 C-12.71704054 283.86257853 -12.71704054 283.86257853 -13.16960526 282.51089096 C-15.85321645 274.49620674 -18.54014169 266.48263974 -21.23339844 258.47119141 C-22.73815835 253.99440648 -24.23859374 249.51619222 -25.73622513 245.03701782 C-26.29833778 243.35869718 -26.86211152 241.68093187 -27.42762375 240.00375366 C-28.20371987 237.70176497 -28.97432278 235.39800728 -29.74365234 233.09375 C-29.97412766 232.41468094 -30.20460297 231.73561188 -30.44206238 231.03596497 C-31.37707734 228.2188169 -32 225.99231481 -32 223 C-32.66 223 -33.32 223 -34 223 C-39.29761141 207.15399954 -44.59173521 191.3068388 -49.88177204 175.45830822 C-52.33840715 168.09869158 -54.79615857 160.73945135 -57.2565918 153.38110352 C-59.40246154 146.96350214 -61.54618214 140.54518751 -63.68738335 134.12602693 C-64.81996591 130.73087417 -65.95358183 127.33607481 -67.08977699 123.94212914 C-68.36175397 120.14245334 -69.62892773 116.34119177 -70.89575195 112.53979492 C-71.26834641 111.42920212 -71.64094086 110.31860931 -72.02482605 109.17436218 C-73.69577554 104.14835435 -75.31954561 99.10878069 -76.8190155 94.02876282 C-77.07202014 93.17898519 -77.32502478 92.32920755 -77.58569622 91.45367908 C-78.06214771 88.63193544 -77.82049104 86.73245541 -77 84 C-74.9609375 81.60546875 -74.9609375 81.60546875 -72.375 79.1875 C-69.33680801 76.2694625 -66.36473042 73.38837316 -63.625 70.1875 C-60.5780547 66.63273048 -57.43129885 63.18405407 -54.25 59.75 C-53.73542236 59.19425293 -53.22084473 58.63850586 -52.69067383 58.06591797 C-51.64268667 56.93430701 -50.59459063 55.80279689 -49.54638672 54.67138672 C-43.84291822 48.50688635 -38.16951003 42.31492125 -32.5625 36.0625 C-29.03683241 32.13172877 -25.46382989 28.24791785 -21.875 24.375 C-18.09892142 20.29777621 -14.3705527 16.19148666 -10.734375 11.98828125 C-7.20832935 7.94603522 -3.59635722 3.97964245 0 0 Z " fill="#FDF3E0" transform="translate(358,141)"/>
<path d="M0 0 C3.00874098 1.33803458 4.98385643 2.77584376 7.20703125 5.1953125 C7.7896875 5.824375 8.37234375 6.4534375 8.97265625 7.1015625 C9.57980469 7.76929688 10.18695312 8.43703125 10.8125 9.125 C11.44414063 9.81078125 12.07578125 10.4965625 12.7265625 11.203125 C16.22279758 15.0106191 19.66142512 18.86124963 23.03125 22.78125 C25.95792359 26.07956468 28.98363998 29.28379832 32 32.5 C36.09182367 36.86291758 40.13162062 41.24494643 44.03125 45.78125 C46.95792359 49.07956468 49.98363998 52.28379832 53 55.5 C60.36280488 63.35060976 60.36280488 63.35060976 63.5 67 C65.76751022 69.62856787 68.09484499 72.16040913 70.52734375 74.63671875 C71.16800781 75.30123047 71.80867187 75.96574219 72.46875 76.65039062 C73.76192092 77.98846332 75.06507703 79.31697113 76.37890625 80.63476562 C80.909377 85.34665133 80.909377 85.34665133 81.41015625 88.95703125 C81.27480469 89.63121094 81.13945313 90.30539063 81 91 C80.01 91 79.02 91 78 91 C77.72091797 91.58539551 77.44183594 92.17079102 77.15429688 92.77392578 C76.07118333 94.86272217 74.89402167 96.70264701 73.53125 98.6171875 C73.04793213 99.299021 72.56461426 99.98085449 72.06665039 100.68334961 C71.54965576 101.40659424 71.03266113 102.12983887 70.5 102.875 C69.96173584 103.63240479 69.42347168 104.38980957 68.86889648 105.17016602 C67.24856881 107.44866959 65.62450527 109.72447387 64 112 C63.14692069 113.19906601 62.29403791 114.39827188 61.44140625 115.59765625 C58.96938514 119.07118092 56.48588117 122.53638605 54 126 C53.47728516 126.72928711 52.95457031 127.45857422 52.41601562 128.20996094 C42.77955987 141.64615737 32.81082793 154.49335593 22 167 C14.88719198 175.24519537 7.85509302 183.53785221 1 192 C-3.87290154 198.01526674 -8.81054043 203.95831163 -13.875 209.8125 C-18.40544319 215.05642147 -22.74549359 220.4171354 -26.99560547 225.88989258 C-29.9258658 229.65639033 -32.92820174 233.34678882 -36 237 C-40.0179852 241.78482464 -43.90749983 246.65187688 -47.75170898 251.57592773 C-51.1543457 255.93285345 -54.59931393 260.25359425 -58.0625 264.5625 C-61.77876904 269.19221548 -65.4522088 273.84966478 -69.0625 278.5625 C-69.85914063 279.59890625 -70.65578125 280.6353125 -71.4765625 281.703125 C-72.80832511 283.43854835 -74.13424233 285.17784627 -75.45214844 286.92382812 C-76.93915779 288.89303275 -78.43757435 290.85312423 -79.9375 292.8125 C-80.62888062 293.73881226 -80.62888062 293.73881226 -81.33422852 294.68383789 C-82.48632173 296.1790624 -83.7364526 297.59769366 -85 299 C-85.99 299 -86.98 299 -88 299 C-88.48726562 298.05125 -88.97453125 297.1025 -89.4765625 296.125 C-94.53034982 286.38617234 -99.92949719 276.88768992 -105.49267578 267.43164062 C-109.75571749 260.17162718 -113.90772719 252.85747575 -118 245.5 C-124.83349118 233.23378342 -131.87663394 221.09970537 -139 209 C-139.63695801 207.91428711 -140.27391602 206.82857422 -140.93017578 205.70996094 C-148.81201932 192.27875531 -156.81271023 178.9425846 -165.12866211 165.77539062 C-167.59686402 161.86566577 -170.05094196 157.96943727 -172.30859375 153.93359375 C-173.79309508 151.02701132 -173.79309508 151.02701132 -175.8125 149.3125 C-176.204375 148.879375 -176.59625 148.44625 -177 148 C-176.72811788 145.5406604 -176.42121059 144.3581431 -174.51293945 142.7355957 C-173.88605225 142.38585693 -173.25916504 142.03611816 -172.61328125 141.67578125 C-171.92169922 141.28712891 -171.23011719 140.89847656 -170.51757812 140.49804688 C-169.78990234 140.10681641 -169.06222656 139.71558594 -168.3125 139.3125 C-167.60416016 138.90966797 -166.89582031 138.50683594 -166.16601562 138.09179688 C-162.11318251 135.85768665 -158.68437435 134.43524108 -154 134 C-154 133.34 -154 132.68 -154 132 C-153.24460937 131.58492187 -152.48921875 131.16984375 -151.7109375 130.7421875 C-133.24338743 120.40554941 -115.91130352 108.82592979 -99.26074219 95.765625 C-97.28318596 94.2211664 -95.29302923 92.69741399 -93.2890625 91.1875 C-81.95026607 82.6382748 -71.29516699 73.32578528 -60.890625 63.671875 C-59.0603444 61.98010212 -57.21795926 60.30125354 -55.359375 58.640625 C-48.24390976 52.25703618 -41.45359826 45.56170465 -34.6875 38.8125 C-34.21137268 38.33896088 -33.73524536 37.86542175 -33.24468994 37.37753296 C-27.60400238 31.7610361 -22.15806858 26.06188983 -17 20 C-15.87237858 18.70330866 -14.74346933 17.40773612 -13.61328125 16.11328125 C-12.51282598 14.84652341 -11.41256468 13.57959704 -10.3125 12.3125 C-9.75755859 11.67505859 -9.20261719 11.03761719 -8.63085938 10.38085938 C-5.67695479 6.97737121 -2.78542003 3.54446393 0 0 Z " fill="#FEF4E1" transform="translate(714,140)"/>
<path d="M0 0 C3.42104328 0.56335783 4.79311788 1.49990822 6.91796875 4.2109375 C7.70905029 5.20432129 7.70905029 5.20432129 8.51611328 6.21777344 C9.34344971 7.28560059 9.34344971 7.28560059 10.1875 8.375 C11.35542133 9.84639181 12.5233902 11.31774588 13.69140625 12.7890625 C14.25875488 13.51125977 14.82610352 14.23345703 15.41064453 14.97753906 C21.76270008 23.06055414 28.40858995 30.79710364 35.42529297 38.30761719 C37.11734103 40.12610978 38.79516184 41.95714087 40.47265625 43.7890625 C53.21641326 57.6358078 66.90995418 70.29510876 81.23144531 82.48876953 C82.94169601 83.95017922 84.64002752 85.42433555 86.3359375 86.90234375 C93.8817891 93.44314294 101.7522906 99.37455043 110 105 C110.80034668 105.54591797 111.60069336 106.09183594 112.42529297 106.65429688 C123.41829143 114.12186198 134.52329497 121.30032554 146 128 C146.91136719 128.55945313 147.82273437 129.11890625 148.76171875 129.6953125 C150.88077262 130.93050271 152.60290895 131.55609425 155 132 C155 132.66 155 133.32 155 134 C155.825 134.2475 156.65 134.495 157.5 134.75 C160.83788451 135.94210161 163.83482117 137.36283469 166.96875 138.99609375 C168.92736537 139.96410173 170.89350368 140.73350138 172.9375 141.5 C176 143 176 143 177.0625 144.9375 C176.96474153 148.16352958 175.87460355 150.14701755 173.57788086 152.38696289 C171.92884141 154.07274405 170.7581583 155.75164352 169.50390625 157.74609375 C169.03404297 158.49044678 168.56417969 159.2347998 168.08007812 160.00170898 C167.32887695 161.20742554 167.32887695 161.20742554 166.5625 162.4375 C166.03462891 163.27933838 165.50675781 164.12117676 164.96289062 164.98852539 C159.693741 173.42588404 154.57997242 181.9545307 149.49121094 190.50146484 C148.02419957 192.95945343 146.54892707 195.41225783 145.0703125 197.86328125 C133.91872503 216.35344042 123.05514556 234.98536014 112.62817383 253.89453125 C107.77754259 262.6675826 102.77172857 271.34088229 97.65429688 279.9609375 C94.17232583 285.85735313 90.97507435 291.83185737 88 298 C87.34 298 86.68 298 86 298 C84.48078051 296.20035663 83.07928153 294.39529667 81.6875 292.5 C77.70325588 287.18718025 73.59239935 282.00451749 69.375 276.875 C65.80599137 272.52068637 62.31947606 268.1585326 59.0625 263.5625 C53.94579248 256.37086438 48.20409463 249.67868051 42.56689453 242.89453125 C40.04387257 239.84394689 37.58105526 236.74677764 35.1171875 233.6484375 C30.62330032 228.02693288 26.06952871 222.45355094 21.52490234 216.87304688 C20.19901424 215.24445041 18.87475365 213.61452922 17.55078125 211.984375 C11.79127423 204.91165902 5.9067447 197.94959066 0 191 C-1.87613639 188.79262849 -3.75133375 186.58446873 -5.625 184.375 C-6.31094238 183.56639526 -6.31094238 183.56639526 -7.01074219 182.74145508 C-9.92393014 179.29807526 -12.78566776 175.81730074 -15.625 172.3125 C-18.44769628 168.83918224 -21.34747812 165.48341921 -24.375 162.1875 C-33.31447194 152.3307605 -41.08481773 141.73198979 -48.32226562 130.58056641 C-50.41991133 127.35412358 -52.53001497 124.13594048 -54.640625 120.91796875 C-57.5728081 116.44696344 -60.50332501 111.97489184 -63.42871094 107.49943542 C-64.58229935 105.73668566 -65.73926695 103.97618901 -66.89648438 102.21582031 C-68.21313297 100.20294945 -69.51843293 98.18255737 -70.80664062 96.15136719 C-71.32935547 95.33571289 -71.85207031 94.52005859 -72.390625 93.6796875 C-72.82922852 92.98343262 -73.26783203 92.28717773 -73.71972656 91.56982422 C-75.01281101 89.6983264 -75.01281101 89.6983264 -78 89 C-77.54690625 84.27607816 -75.78780087 82.37862347 -72.375 79.1875 C-69.33680801 76.2694625 -66.36473042 73.38837316 -63.625 70.1875 C-60.5780547 66.63273048 -57.43129885 63.18405407 -54.25 59.75 C-53.73542236 59.19425293 -53.22084473 58.63850586 -52.69067383 58.06591797 C-51.64268667 56.93430701 -50.59459063 55.80279689 -49.54638672 54.67138672 C-43.84291822 48.50688635 -38.16951003 42.31492125 -32.5625 36.0625 C-29.03683241 32.13172877 -25.46382989 28.24791785 -21.875 24.375 C-18.09892142 20.29777621 -14.3705527 16.19148666 -10.734375 11.98828125 C-7.20832935 7.94603522 -3.59635722 3.97964245 0 0 Z " fill="#FEF4E1" transform="translate(358,141)"/>
<path d="M0 0 C1.79578516 4.18249776 0.0359555 7.84127282 -1.35171509 11.89019775 C-1.61684729 12.69086977 -1.88197949 13.49154178 -2.155146 14.31647658 C-3.04871992 17.00640718 -3.9572389 19.69104823 -4.86572266 22.37597656 C-5.50860677 24.30101801 -6.15056234 26.22636976 -6.79165649 28.15200806 C-8.53886724 33.39137229 -10.29897671 38.62632334 -12.06126833 43.86063099 C-13.90573698 49.34655601 -15.73807742 54.83652812 -17.57162476 60.32611084 C-21.05298878 70.74324229 -24.54477995 81.15684634 -28.04052293 91.56916022 C-33.15364476 106.80053188 -38.25081499 122.03724147 -43.34845543 137.2737999 C-44.10366399 139.53098566 -44.85888053 141.78816875 -45.61410522 144.04534912 C-45.98324551 145.14866821 -46.3523858 146.2519873 -46.73271215 147.3887403 C-48.91546773 153.91161626 -51.10103428 160.43354168 -53.28922582 166.95459604 C-54.65821489 171.03477083 -56.02601313 175.1153443 -57.39367294 179.19596481 C-58.0231054 181.0729121 -58.65310128 182.94967056 -59.28373718 184.82621384 C-62.31321359 193.84128177 -65.29582315 202.86324996 -68.10478085 211.94957584 C-70.79886668 220.63026182 -73.70592971 229.24082995 -76.58764648 237.8605957 C-77.23574578 239.80296914 -77.88370615 241.74538894 -78.53153992 243.68785095 C-79.91818199 247.84463737 -81.30575277 252.00111213 -82.69405937 256.15734291 C-84.90532062 262.77744229 -87.11420674 269.39833273 -89.32276917 276.01933289 C-94.42135169 291.3030929 -99.52290127 306.58586217 -104.62459564 321.86858368 C-109.28164008 335.81935945 -113.93799363 349.77036485 -118.5918718 363.72219723 C-120.42006198 369.20267595 -122.24886563 374.68294811 -124.07928276 380.16268349 C-132.78173026 406.2158102 -141.38987487 432.2968349 -149.86234039 458.42569464 C-152.9794754 468.03087416 -156.16535308 477.61287318 -159.375 487.1875 C-159.9376539 488.87039126 -160.5001524 490.55333449 -161.0625 492.23632812 C-162.37325838 496.15813711 -163.68594137 500.07929565 -165 504 C-169.33146024 498.54731709 -170.14678913 492.3592061 -171.43359375 485.671875 C-172.01890395 482.91082551 -172.73636812 480.21684106 -173.5 477.5 C-174.73298122 473.11331304 -175.68646487 468.7327307 -176.53515625 464.2578125 C-177.00915893 461.79374502 -177.00915893 461.79374502 -178 458.625 C-178.88143732 455.42978973 -179.43797626 452.39460996 -179.9375 449.125 C-180.65213348 444.60086362 -181.72783752 440.51687783 -183.27734375 436.21875 C-184.33263801 432.9787114 -184.91236481 429.68151134 -185.53515625 426.3359375 C-186.00935246 423.78667416 -186.00935246 423.78667416 -187 420.5 C-187.79093141 417.73174006 -188.4009246 415.07034673 -188.9375 412.25 C-189.63774327 408.61094051 -190.4972598 405.06753801 -191.5 401.5 C-192.73226641 397.11585619 -193.68439389 392.73740073 -194.53515625 388.265625 C-194.93369737 386.32315568 -195.45524649 384.40663728 -196 382.5 C-196.79093141 379.73174006 -197.4009246 377.07034673 -197.9375 374.25 C-198.63774327 370.61094051 -199.4972598 367.06753801 -200.5 363.5 C-201.73298122 359.11331304 -202.68646487 354.7327307 -203.53515625 350.2578125 C-204.00915893 347.79374502 -204.00915893 347.79374502 -205 344.625 C-205.88143732 341.42978973 -206.43797626 338.39460996 -206.9375 335.125 C-207.65300708 330.59533312 -208.73295292 326.50739089 -210.28125 322.203125 C-211.30881558 319.0534131 -211.86447379 315.85458275 -212.46875 312.6015625 C-213.02885286 309.85870586 -213.74104307 307.1942971 -214.5 304.5 C-215.73226641 300.11585619 -216.68439389 295.73740073 -217.53515625 291.265625 C-217.93369737 289.32315568 -218.45524649 287.40663728 -219 285.5 C-220.03713995 281.87001016 -220.78375929 278.25597325 -221.4921875 274.55078125 C-222.11087903 271.44304609 -222.8573432 268.37283271 -223.6328125 265.30078125 C-224.96675406 256.9423602 -222.481255 251.9965216 -218.6640625 244.57421875 C-217.83399185 242.92181938 -217.83399185 242.92181938 -216.9871521 241.23603821 C-215.21276271 237.71312058 -213.41879472 234.20056905 -211.625 230.6875 C-210.45583064 228.36714103 -209.28784994 226.04618271 -208.12109375 223.72460938 C-201.69546419 210.98694318 -195.06164684 198.39673212 -188 186 C-185 187 -185 187 -183.4375 189.0625 C-181.66840723 192.67760262 -180.86554308 196.07176601 -180 200 C-179.34 200 -178.68 200 -178 200 C-177.0097347 201.70192385 -176.03326794 203.41188011 -175.0625 205.125 C-174.24458984 206.55199219 -174.24458984 206.55199219 -173.41015625 208.0078125 C-171.97051473 211.06256432 -171.39132616 213.66134387 -171 217 C-170.34 217 -169.68 217 -169 217 C-166 222.75 -166 222.75 -166 225 C-161.34324544 221.68109758 -158.29596027 217.73076032 -154.9375 213.1875 C-153.7827227 211.6499345 -152.6264421 210.11349703 -151.46875 208.578125 C-150.88867188 207.80791016 -150.30859375 207.03769531 -149.7109375 206.24414062 C-147.18077436 202.92546774 -144.56371165 199.68031557 -141.9375 196.4375 C-137.29720198 190.68902554 -132.83160988 184.82850104 -128.42285156 178.90112305 C-125.24125588 174.63122292 -121.9973553 170.42106511 -118.6875 166.25 C-108.74789308 153.69250939 -99.2492542 140.79747691 -89.91235352 127.7878418 C-85.86397884 122.16054553 -81.73101919 116.60126404 -77.5625 111.0625 C-61.8815239 90.21619148 -46.4528036 69.209706 -32.2578125 47.3125 C-31.71898437 46.4875 -31.18015625 45.6625 -30.625 44.8125 C-30.16351562 44.09707031 -29.70203125 43.38164062 -29.2265625 42.64453125 C-28 41 -28 41 -26 40 C-25.05267528 38.37098514 -25.05267528 38.37098514 -24.19140625 36.40625 C-22.13479886 32.13928792 -19.66824382 28.36048649 -16.9375 24.5 C-15.97119589 23.11469372 -15.00505529 21.72927338 -14.0390625 20.34375 C-13.5430957 19.63605469 -13.04712891 18.92835938 -12.53613281 18.19921875 C-9.9393208 14.48146882 -7.37776294 10.73955339 -4.8125 7 C-3.88166905 5.64572429 -2.95069444 4.2915473 -2.01953125 2.9375 C-1.01986328 1.4834375 -1.01986328 1.4834375 0 0 Z " fill="#FDF4E1" transform="translate(790,237)"/>
<path d="M0 0 C1.35574916 4.06724747 0.0222782 6.82279812 -1.25 10.75 C-4.62309292 21.54703998 -7.6941177 32.42256525 -10.75 43.3125 C-11.2385512 45.05112239 -11.72715704 46.78972942 -12.21582031 48.52832031 C-12.89432991 50.94267587 -13.57259445 53.35709757 -14.24963379 55.77186584 C-15.95715221 61.86061391 -17.66823196 67.94720127 -19.5 74 C-20.33356089 76.76609508 -21.15072695 79.53256856 -21.9375 82.3125 C-23.25166587 86.87342859 -24.66086683 91.40280445 -26.0625 95.9375 C-26.73013608 98.11844452 -27.37340351 100.30691227 -28 102.5 C-29.26509355 106.92782743 -30.63377313 111.32120727 -32 115.71875 C-32.65928741 117.88203682 -33.29911666 120.05136324 -33.91796875 122.2265625 C-35.01369316 126.04775303 -36.15443459 129.85365062 -37.3125 133.65625 C-37.63408081 134.7151947 -37.63408081 134.7151947 -37.9621582 135.79553223 C-38.86942974 138.78305487 -39.77803604 141.77017113 -40.68652344 144.75732422 C-41.35398158 146.95265819 -42.02075425 149.14819958 -42.6875 151.34375 C-42.88964111 152.00749634 -43.09178223 152.67124268 -43.30004883 153.35510254 C-44.57639463 157.55833287 -45.79797035 161.77499365 -47 166 C-47.66085943 168.168445 -48.32742809 170.33515915 -49 172.5 C-50.02837287 175.82708871 -51.04329145 179.15152006 -52 182.5 C-52.99090386 185.96816352 -54.01781337 189.4226664 -55.0625 192.875 C-55.40410156 194.00679687 -55.74570313 195.13859375 -56.09765625 196.3046875 C-57 199 -57 199 -58 200 C-58.38671626 202.43007152 -58.38671626 202.43007152 -58 205 C-56.51039249 206.5765531 -56.51039249 206.5765531 -54.36328125 207.65625 C-53.56913818 208.11451172 -52.77499512 208.57277344 -51.95678711 209.04492188 C-51.08417236 209.52509766 -50.21155762 210.00527344 -49.3125 210.5 C-47.46517759 211.56081566 -45.618854 212.62337224 -43.7734375 213.6875 C-42.81663086 214.23277344 -41.85982422 214.77804687 -40.87402344 215.33984375 C-36.33428334 217.96218767 -31.88618656 220.72685223 -27.4375 223.5 C-26.56319336 224.04277588 -25.68888672 224.58555176 -24.78808594 225.14477539 C-11.19526941 233.59188363 2.30346955 242.18743978 15.80175781 250.78442383 C24.08624099 256.0593437 32.38818176 261.30625384 40.6953125 266.54541016 C42.98545164 267.99081789 45.27419657 269.43840684 47.5625 270.88671875 C52.37158496 273.92990812 57.18460506 276.96680583 62 280 C63.49829346 280.94407715 63.49829346 280.94407715 65.02685547 281.90722656 C68.22448 283.92012851 71.4244389 285.92927114 74.625 287.9375 C75.62039795 288.56438721 76.6157959 289.19127441 77.64135742 289.8371582 C83.33663132 293.40480176 89.08353728 296.81159191 95 300 C93.85841504 303.42475488 92.75700311 303.96968131 89.81054688 305.82128906 C86.29246835 308.11164547 83.04925086 310.78404255 79.75 313.375 C78.14195109 314.63154114 76.53387748 315.88805067 74.92578125 317.14453125 C74.10803223 317.78471191 73.2902832 318.42489258 72.44775391 319.08447266 C68.615758 322.0832598 64.77743044 325.07388281 60.9375 328.0625 C60.19628906 328.63959717 59.45507812 329.21669434 58.69140625 329.8112793 C52.86438795 334.34206519 47.00311667 338.82678722 41.1328125 343.30126953 C36.53756357 346.80913428 31.97661434 350.35735348 27.4375 353.9375 C13.388125 365 13.388125 365 11 365 C11 365.99 11 366.98 11 368 C11.66 368 12.32 368 13 368 C13.95117025 369.3554176 14.8906023 370.72023491 15.77734375 372.11865234 C18.17416175 375.80672732 20.87568609 379.28461573 23.5 382.8125 C28.72077855 389.86116719 33.84294556 396.96923831 38.88305664 404.14794922 C42.14647121 408.7955941 45.45357726 413.40719567 48.8046875 417.9921875 C61.78399123 435.7752193 61.78399123 435.7752193 67.5 444 C73.42641554 452.52469625 79.57588171 460.89432811 85.66748047 469.30126953 C91.9944977 478.03409695 98.28269839 486.79046629 104.48510742 495.61230469 C108.07402086 500.7092785 111.71439687 505.7668336 115.375 510.8125 C121.20598489 518.85581113 126.91345117 526.9814404 132.59765625 535.12890625 C135.71543151 539.59757088 138.85356609 544.05148472 142 548.5 C148.13701585 557.18067461 154.23280278 565.89004735 160.32348633 574.60327148 C161.47855068 576.25454085 162.63470247 577.90504991 163.79174805 579.55493164 C167.28578143 584.53822515 170.75196936 589.53875341 174.1875 594.5625 C178.50918418 600.86467489 182.89111757 607.121648 187.30517578 613.359375 C195.93822054 625.56022825 204.51256743 637.80102846 212.95727539 650.13305664 C216.26331716 654.95181707 219.62198191 659.73147903 223 664.5 C228.2888038 671.96744728 233.49020665 679.49140044 238.65869141 687.04248047 C239.97160681 688.95856268 241.28782657 690.87232208 242.60546875 692.78515625 C246.71582564 698.75318093 250.81758442 704.72640208 254.88671875 710.72265625 C255.55735352 711.70991699 256.22798828 712.69717773 256.91894531 713.71435547 C258.23907883 715.65879015 259.55750945 717.60438236 260.87402344 719.55126953 C263.31501143 723.14541392 265.69387811 726.63848007 268.50390625 729.95703125 C268.99761719 730.63121094 269.49132812 731.30539062 270 732 C269.67 732.99 269.34 733.98 269 735 C255.5724585 717.95220241 255.5724585 717.95220241 250 710 C245.57595665 703.69289281 240.87434634 697.62333295 236.12353516 691.55981445 C231.96500383 686.25159843 227.88444333 680.89673001 223.8671875 675.48046875 C222.63381413 673.84199157 221.37616168 672.22148046 220.09375 670.62109375 C217.53732347 667.42079114 215.07884004 664.15426339 212.625 660.875 C212.10607178 660.18269287 211.58714355 659.49038574 211.05249023 658.77709961 C207.02528336 653.39451941 203.04063463 647.98139437 199.0625 642.5625 C194.08283146 635.78123851 189.0190603 629.07285949 183.88818359 622.40551758 C179.91982927 617.23588315 176.03916713 612.00700513 172.1875 606.75 C167.19879033 599.94214117 162.13001748 593.2019904 157 586.5 C151.34929818 579.11733675 145.78976028 571.67640378 140.29785156 564.17504883 C135.85518998 558.12220624 131.31627853 552.14746987 126.75 546.1875 C121.79635869 539.72104884 116.9324799 533.21264303 112.2421875 526.55273438 C109.50630272 522.67454719 106.63313276 518.93386447 103.68725586 515.21435547 C102.09374917 513.12303646 100.63820885 510.99505421 99.203125 508.79296875 C96.11370447 504.12396973 92.84075953 499.61629571 89.5 495.125 C88.2603609 493.45056212 87.02077919 491.77608175 85.78125 490.1015625 C85.15347656 489.2549707 84.52570313 488.40837891 83.87890625 487.53613281 C80.91104855 483.53014194 77.95608123 479.51468352 75 475.5 C74.42749512 474.72358154 73.85499023 473.94716309 73.26513672 473.1472168 C70.26664252 469.08071395 67.27368791 465.01028876 64.2890625 460.93359375 C56.29891851 449.98678474 56.29891851 449.98678474 47.84375 439.3984375 C45.60289971 436.48343309 43.60921323 433.43605642 41.58398438 430.36865234 C39.14543219 426.72209974 36.57835981 423.17346768 34 419.625 C33.443125 418.85607422 32.88625 418.08714844 32.3125 417.29492188 C27.65966942 410.88170115 22.95914338 404.50400831 18.25 398.13208008 C13.59970292 391.83328901 9.00443697 385.49617849 4.4375 379.13671875 C3.9425 378.44835937 3.4475 377.76 2.9375 377.05078125 C2.45925781 376.38385254 1.98101562 375.71692383 1.48828125 375.02978516 C0.44501756 373.60693504 -0.62234874 372.20159208 -1.70703125 370.81005859 C-2.25746094 370.10316895 -2.80789063 369.3962793 -3.375 368.66796875 C-3.87773437 368.03528076 -4.38046875 367.40259277 -4.8984375 366.75073242 C-6 365 -6 365 -6 362 C-4.05078125 360.30859375 -4.05078125 360.30859375 -1.3125 358.4375 C2.8826889 355.49659786 7.00725833 352.50671971 11.0625 349.375 C11.59544678 348.9634668 12.12839355 348.55193359 12.67749023 348.12792969 C18.15128908 343.89475288 23.60594275 339.63682041 29.06469727 335.38427734 C34.87436142 330.86314267 40.71300135 326.38142172 46.5715332 321.92382812 C50.40350419 319.003378 54.21140333 316.05576478 57.99609375 313.07421875 C58.82109375 312.42582031 59.64609375 311.77742188 60.49609375 311.109375 C62.09698629 309.84915239 63.69476339 308.58495986 65.2890625 307.31640625 C66.00707031 306.75179688 66.72507812 306.1871875 67.46484375 305.60546875 C68.100271 305.10168701 68.73569824 304.59790527 69.39038086 304.07885742 C71 303 71 303 73 303 C69.03095917 298.66374477 64.75103505 295.74030483 59.75 292.6875 C58.04889927 291.63114159 56.3484105 290.57379728 54.6484375 289.515625 C53.73932617 288.95166016 52.83021484 288.38769531 51.89355469 287.80664062 C46.69336889 284.5598152 41.53578555 281.24645816 36.375 277.9375 C35.3037085 277.25147705 34.23241699 276.5654541 33.12866211 275.85864258 C26.49413835 271.60756703 19.87206775 267.33787638 13.26489258 263.04443359 C9.70784048 260.73708825 6.13865597 258.45217493 2.546875 256.19921875 C-15.9401025 244.58064107 -34.03441464 232.36728208 -52.17919922 220.22460938 C-58.78030974 215.80767161 -65.38966009 211.40310837 -72 207 C-69.37275851 196.41640517 -65.78770038 186.13894335 -62.3125 175.8125 C-61.6995892 173.98381798 -61.08695669 172.15504266 -60.47460938 170.32617188 C-58.98627982 165.88303222 -57.4941877 161.44117286 -56 157 C-55.34 157 -54.68 157 -54 157 C-53.7525 155.845 -53.505 154.69 -53.25 153.5 C-52.23711341 148.96715292 -51.16522955 144.44923918 -50.0625 139.9375 C-49.90491211 139.2775 -49.74732422 138.6175 -49.58496094 137.9375 C-48.59515318 133.93066298 -47.3392322 130.1384824 -45.84545898 126.28344727 C-44.0446831 121.41984437 -42.55691018 116.44582369 -41 111.5 C-38.82575792 104.59310316 -36.57525192 97.76718976 -34 91 C-32.71320894 87.21090117 -31.5065233 83.39528077 -30.28125 79.5859375 C-29 76 -29 76 -27.48828125 73.02734375 C-25.7616057 69.5150772 -24.71610066 65.94492541 -23.6875 62.1875 C-21.91047349 55.93164843 -19.96953559 49.76058264 -17.8125 43.625 C-17.56266357 42.90594482 -17.31282715 42.18688965 -17.05541992 41.44604492 C-15.9458757 38.3293603 -14.84550267 35.76825401 -13 33 C-12.41799415 31.17907082 -11.88321849 29.34288574 -11.375 27.5 C-9.56256857 21.40802516 -7.28832558 15.60215152 -4.8125 9.75 C-4.45526855 8.90373047 -4.09803711 8.05746094 -3.72998047 7.18554688 C-1.14170316 1.14170316 -1.14170316 1.14170316 0 0 Z " fill="#1F2532" transform="translate(261,241)"/>
<path d="M0 0 C0.66 0 1.32 0 2 0 C2.36762451 1.08829102 2.73524902 2.17658203 3.11401367 3.29785156 C4.49829096 7.39206656 5.88813433 11.48437487 7.27954102 15.57617188 C7.87738047 17.33673592 8.47377264 19.09779219 9.06860352 20.859375 C12.09451211 29.81748958 15.16326259 38.67962872 18.90307617 47.37060547 C20.6881854 51.64962313 22.12979614 56.03043281 23.5625 60.4375 C23.86349609 61.34927002 24.16449219 62.26104004 24.47460938 63.20043945 C26.05459742 68.0099333 27.56448924 72.83263958 29 77.6875 C30.47229438 82.56539723 32.25360146 87.24751727 34.14477539 91.97167969 C38.39814802 102.7679828 42.04750345 113.74929673 45.68359375 124.765625 C46.39088371 126.90033969 47.09832997 129.0350026 47.80592346 131.1696167 C49.2739329 135.60238087 50.738148 140.03637694 52.19995117 144.47119141 C54.07245262 150.15000857 55.95758561 155.82454664 57.8458395 161.49814224 C59.30432677 165.88671842 60.75468924 170.27794747 62.20274544 174.66997528 C62.89483022 176.76487238 63.58978292 178.85882433 64.2876873 180.95178986 C65.25816029 183.86519882 66.21725911 186.78211683 67.17358398 189.70019531 C67.60592346 190.98595207 67.60592346 190.98595207 68.04699707 192.29768372 C69.46812529 196.67622111 70.34093739 200.3317758 70 205 C68.989375 205.40089844 67.97875 205.80179688 66.9375 206.21484375 C62.97241075 207.91772219 59.54279017 210.11837499 56 212.5625 C54.6719198 213.46230571 53.34379354 214.36204344 52.015625 215.26171875 C51.34595703 215.71853027 50.67628906 216.1753418 49.98632812 216.64599609 C40.56982905 223.06486334 31.0365256 229.27513153 21.38623047 235.33642578 C14.84262057 239.45174804 8.35727929 243.65121542 1.88378906 247.87573242 C-4.69782242 252.1658701 -11.31348054 256.40070797 -17.9375 260.625 C-28.58934512 267.42265208 -39.17147247 274.3220773 -49.72827148 281.26611328 C-50.29945206 281.64157288 -50.87063263 282.01703247 -51.4591217 282.40386963 C-52.58932493 283.14691687 -53.71916315 283.89051962 -54.84861755 284.63470459 C-57.86245668 286.61576812 -60.89068988 288.5704001 -63.93994141 290.49658203 C-64.5855452 290.90582413 -65.23114899 291.31506622 -65.89631653 291.73670959 C-67.14064304 292.52382629 -68.3875268 293.30691867 -69.63725281 294.08543396 C-72.85656026 296.01935823 -72.85656026 296.01935823 -75 299 C-74.41476562 299.25523437 -73.82953125 299.51046875 -73.2265625 299.7734375 C-70.77862593 301.12194993 -69.28133264 302.5888745 -67.375 304.625 C-64.42751318 307.65998179 -61.40457971 310.34387982 -58.0625 312.9375 C-53.70989355 316.32583671 -49.88801865 320.00988642 -46.10546875 324.01953125 C-44.06912668 326.07964586 -44.06912668 326.07964586 -41.55078125 327.44921875 C-38.54725015 329.27525527 -36.45272631 331.4874511 -34 334 C-32.01739574 335.68732277 -30.0167658 337.35366057 -28 339 C-24.11831282 342.16872423 -20.51644509 345.43242728 -17 349 C-15.45021771 350.43056826 -13.88827892 351.84811859 -12.3125 353.25 C-11.54550781 353.93578125 -10.77851562 354.6215625 -9.98828125 355.328125 C-8.10201336 357.04622145 -8.10201336 357.04622145 -6 358 C-6 362 -6 362 -7.78515625 363.9609375 C-8.51605469 364.63382813 -9.24695313 365.30671875 -10 366 C-11.17947814 367.51608095 -12.3226725 369.06076543 -13.4375 370.625 C-14.13359375 371.59566406 -14.8296875 372.56632812 -15.546875 373.56640625 C-15.93423828 374.1092627 -16.32160156 374.65211914 -16.72070312 375.21142578 C-19.19575419 378.67177389 -21.69446318 382.11510042 -24.1875 385.5625 C-27.53094415 390.18957491 -30.87145058 394.81866594 -34.19921875 399.45703125 C-42.31383754 410.75427001 -50.62679317 421.89348642 -59 433 C-67.13931838 443.81034165 -75.20232012 454.67415525 -83.21777344 465.57666016 C-86.72596087 470.34683392 -90.23982165 475.11283161 -93.75390625 479.87866211 C-96.65102167 483.80856047 -99.54443824 487.74106714 -102.4296875 491.6796875 C-108.57705897 500.06183189 -114.79837785 508.37712604 -121.125 516.625 C-125.88265396 522.83019308 -130.53585026 529.08030212 -135 535.5 C-140.1081872 542.8458599 -145.4879948 549.95943806 -150.93310547 557.05810547 C-155.38908796 562.87177841 -159.78821172 568.72187736 -164.125 574.625 C-164.69605469 575.40230469 -165.26710938 576.17960938 -165.85546875 576.98046875 C-167.5716667 579.31932355 -169.28617559 581.65940552 -171 584 C-178.90763886 594.79957535 -186.89636579 605.52560154 -195.03198242 616.15478516 C-199.47942319 621.97534435 -203.85757279 627.8415922 -208.1875 633.75 C-214.10035778 641.81479928 -220.14065659 649.77269573 -226.23583984 657.70019531 C-229.56540827 662.0407066 -232.8748223 666.39659326 -236.1875 670.75 C-240.48010758 676.39073257 -244.7835665 682.02177056 -249.125 687.625 C-253.71070457 693.57028533 -258.15079383 699.61827256 -262.58911133 705.67407227 C-267.30746635 712.09787236 -272.12387206 718.44130095 -277.0012207 724.74511719 C-277.51257568 725.40801758 -278.02393066 726.07091797 -278.55078125 726.75390625 C-279.00106689 727.33470947 -279.45135254 727.9155127 -279.9152832 728.51391602 C-281.08258429 730.02675021 -281.08258429 730.02675021 -282 732 C-282.66 732 -283.32 732 -284 732 C-282.44649563 727.29484597 -279.83506754 723.83008881 -276.875 719.9375 C-272.76648489 714.43741263 -268.84420208 708.86613514 -265.0703125 703.12890625 C-257.98522809 692.42107114 -250.56571005 681.93425729 -243.19287109 671.42382812 C-239.60173174 666.30063943 -236.03566305 661.1616093 -232.5 656 C-226.6606414 647.47856657 -220.73065511 639.02132839 -214.79833984 630.56445312 C-211.86275013 626.37826872 -208.93159134 622.18898491 -206 618 C-204.83594837 616.33723197 -203.67188586 614.67447157 -202.5078125 613.01171875 C-200.14751876 609.63996469 -197.7882509 606.2674959 -195.4296875 602.89453125 C-188.46944332 592.94246931 -181.48743923 583.00629774 -174.4765625 573.08984375 C-172.96208462 570.9463367 -171.4495271 568.80148642 -169.9375 566.65625 C-164.90770637 559.52124049 -159.86448358 552.39664404 -154.78198242 545.29907227 C-151.56186886 540.79806482 -148.3729396 536.27558883 -145.1875 531.75 C-139.40437288 523.54088035 -133.53277472 515.39755097 -127.64111328 507.26611328 C-124.92351827 503.513552 -122.21205527 499.75656581 -119.5 496 C-118.41669638 494.49997854 -117.33336304 492.99997854 -116.25 491.5 C-115.71375 490.7575 -115.1775 490.015 -114.625 489.25 C-109.75 482.5 -109.75 482.5 -108.12475586 480.24975586 C-107.04211746 478.7506555 -105.9595978 477.25146938 -104.87719727 475.75219727 C-102.15920177 471.98771832 -99.43911932 468.22478096 -96.71484375 464.46484375 C-90.93074391 456.47727731 -85.19197239 448.46137871 -79.51928711 440.39428711 C-75.34686349 434.46937711 -71.10629373 428.5954875 -66.85327148 422.72827148 C-63.2146389 417.70163422 -59.6263776 412.64232886 -56.0625 407.5625 C-51.77922734 401.46778362 -47.41947048 395.43418602 -43 389.4375 C-42.41984131 388.64923828 -41.83968262 387.86097656 -41.24194336 387.04882812 C-38.34758162 383.12990999 -35.42429274 379.23786653 -32.4453125 375.3828125 C-31.60613281 374.28948608 -31.60613281 374.28948608 -30.75 373.17407227 C-29.6932513 371.80090227 -28.62853529 370.43381451 -27.5546875 369.07397461 C-24.95299275 365.68650014 -24 364.40607782 -24 360 C-26.02204288 357.90118191 -26.02204288 357.90118191 -28.75 355.9375 C-33.06547306 352.56621023 -37.17875666 349.10509148 -41.1875 345.375 C-45.07706293 341.76927004 -49.00080352 338.2171455 -53.0078125 334.7421875 C-55.36020635 332.68499601 -57.68034966 330.59403085 -60 328.5 C-62.98062721 325.81016569 -65.97245233 323.13689636 -69 320.5 C-72.02754767 317.86310364 -75.01937279 315.18983431 -78 312.5 C-85.32556137 305.63839407 -85.32556137 305.63839407 -93.2265625 299.4921875 C-93.81179688 298.99976563 -94.39703125 298.50734375 -95 298 C-95 297.01 -95 296.02 -95 295 C-93.28540039 293.62817383 -93.28540039 293.62817383 -90.84765625 292.20703125 C-89.93878662 291.66755859 -89.02991699 291.12808594 -88.09350586 290.57226562 C-87.09327393 289.99154297 -86.09304199 289.41082031 -85.0625 288.8125 C-82.93855986 287.55077309 -80.81621738 286.28635366 -78.6953125 285.01953125 C-77.03677246 284.03073975 -77.03677246 284.03073975 -75.34472656 283.02197266 C-69.97965934 279.77865246 -64.7075229 276.39488097 -59.4375 273 C-58.39352051 272.32888184 -57.34954102 271.65776367 -56.27392578 270.96630859 C-54.18874019 269.62543952 -52.10393656 268.28397625 -50.01953125 266.94189453 C-36.80388385 258.44276295 -23.51831323 250.05816858 -10.18041992 241.75244141 C-2.83034968 237.16686989 4.46574683 232.50174147 11.75 227.8125 C21.6598975 221.43949156 31.69186316 215.30999245 41.82421875 209.29882812 C46.9184713 206.25782458 51.9587303 203.12779507 57 200 C56.34537156 196.66418058 55.67473716 193.33180559 55 190 C54.84402344 189.20078125 54.68804688 188.4015625 54.52734375 187.578125 C53.68067485 183.45150348 52.57023407 179.91738784 50.78515625 176.078125 C49.72515603 173.27255227 49.13864168 170.42905818 48.5 167.5 C47.72004612 163.9252114 46.94518352 160.87209488 45.5 157.5 C43.6326433 153.14283436 42.76256152 148.76533418 41.75390625 144.14453125 C40.97872029 140.91124264 39.93137799 137.96550282 38.68359375 134.89453125 C37.68074485 132.11520714 37.15174536 129.27368017 36.625 126.37109375 C35.93244556 123.74371533 34.85390922 121.37804568 33.7578125 118.89819336 C32.48407313 115.70768961 31.76423243 112.40471647 31 109.0625 C29.4928811 102.72072533 29.4928811 102.72072533 27.375 96.5625 C26.05721227 93.1482318 25.27553829 89.95583079 24.625 86.37109375 C23.94657718 83.79732719 22.89805038 81.48803481 21.82470703 79.05883789 C20.19167316 74.98205441 19.10666309 70.72812431 17.9375 66.5 C17.68162109 65.58863281 17.42574219 64.67726563 17.16210938 63.73828125 C16.66119631 61.953537 16.16228856 60.16822854 15.66552734 58.38232422 C15.13223998 56.47336673 14.5858476 54.56807226 14.03515625 52.6640625 C13.10858406 49.38434659 12.22018445 46.09807441 11.34375 42.8046875 C10.89322266 41.11279297 10.89322266 41.11279297 10.43359375 39.38671875 C9.80925785 37.03827533 9.18687361 34.68931222 8.56640625 32.33984375 C8.11587891 30.65181641 8.11587891 30.65181641 7.65625 28.9296875 C7.38619141 27.91116699 7.11613281 26.89264648 6.83789062 25.84326172 C6.04225874 23.14339896 5.04522821 20.61042169 4 18 C3.6075381 16.53383071 3.24989455 15.05784477 2.9296875 13.57421875 C2.75566406 12.77822266 2.58164062 11.98222656 2.40234375 11.16210938 C2.22832031 10.34548828 2.05429687 9.52886719 1.875 8.6875 C1.60236328 7.43356445 1.60236328 7.43356445 1.32421875 6.15429688 C0.87894635 4.10370028 0.4389448 2.05196038 0 0 Z " fill="#1F2533" transform="translate(823,246)"/>
<path d="M0 0 C3.28792067 1.37316984 4.75888995 2.68204204 6.59375 5.71875 C7.06031006 6.47671875 7.52687012 7.2346875 8.00756836 8.015625 C8.5000708 8.83546875 8.99257324 9.6553125 9.5 10.5 C10.5723137 12.24075829 11.64658126 13.98031429 12.72265625 15.71875 C13.54080811 17.04519531 13.54080811 17.04519531 14.37548828 18.3984375 C18.24771117 24.59958073 22.3599317 30.6443368 26.45263672 36.70117188 C28.05381828 39.0799547 29.63856133 41.46918669 31.22265625 43.859375 C37.46440919 53.21268559 44.01412922 61.94825851 51.51171875 70.32617188 C54.0696463 73.20300116 56.56270893 76.13518739 59.0625 79.0625 C60.05986989 80.22658473 61.05726554 81.39064739 62.0546875 82.5546875 C69.02241975 90.69980553 75.93176697 98.88318679 82.6953125 107.19921875 C85.22033245 110.26775994 87.79492333 113.29033154 90.375 116.3125 C94.67933672 121.36228051 98.80347505 126.52996034 102.87451172 131.76879883 C105.99106746 135.76212789 109.20542808 139.65262792 112.5 143.5 C117.72665184 149.61106221 122.69992858 155.89853301 127.63378906 162.24707031 C128.97607108 163.96929777 130.32616694 165.68503274 131.6796875 167.3984375 C137.28654006 174.49814255 142.80502569 181.65946587 148.27783203 188.86303711 C152.18719419 193.98973153 156.2194028 198.9812668 160.390625 203.8984375 C162 206 162 206 163 209 C163.66 209 164.32 209 165 209 C165.11754639 208.4320874 165.23509277 207.8641748 165.35620117 207.27905273 C166.0593309 204.78996815 167.0563822 202.80183376 168.30078125 200.53515625 C168.77676758 199.6642334 169.25275391 198.79331055 169.74316406 197.89599609 C170.26104492 196.96094238 170.77892578 196.02588867 171.3125 195.0625 C171.85229492 194.08104004 172.39208984 193.09958008 172.94824219 192.08837891 C177.97379734 182.98193281 183.12718648 173.95074339 188.31494141 164.93603516 C190.16925882 161.70508454 192.01339843 158.46840933 193.85546875 155.23046875 C202.1027348 140.73944906 210.45642328 126.31895492 219 112 C219.90298828 110.48212891 219.90298828 110.48212891 220.82421875 108.93359375 C230.2452379 93.10239662 239.71723565 77.29169873 250 62 C251 64 251 64 250.21484375 66.65234375 C247.71773579 73.07456942 245.03502951 79.13738772 241.52734375 85.07421875 C240.23450804 87.55077615 239.22970383 89.92591016 238.234375 92.52734375 C235.74156499 98.89588402 232.52892892 104.84820295 229.3125 110.875 C228.13799235 113.07863651 226.96724634 115.28428322 225.80078125 117.4921875 C225.28684814 118.45495605 224.77291504 119.41772461 224.2434082 120.40966797 C223.1720238 122.64163116 222.47436089 124.58293345 222 127 C221.34 127 220.68 127 220 127 C219.79133301 128.07290283 219.58266602 129.14580566 219.36767578 130.2512207 C217.86134647 136.24279945 214.93965116 141.51917692 212.1171875 146.98046875 C210.93874572 149.30140367 209.76036202 151.62236809 208.58203125 153.94335938 C207.03675423 156.96989641 205.48717623 159.99422591 203.93603516 163.01776123 C201.8186985 167.14560277 199.71616472 171.2807496 197.6171875 175.41796875 C197.05474335 176.50450241 196.49229919 177.59103607 195.91281128 178.710495 C195.39872711 179.72537491 194.88464294 180.74025482 194.35498047 181.78588867 C193.67119827 183.11870125 193.67119827 183.11870125 192.97360229 184.47843933 C191.93273135 187.17422101 191.80616696 189.13685326 192 192 C190.68 192 189.36 192 188 192 C187.84144531 192.60585938 187.68289063 193.21171875 187.51953125 193.8359375 C185.71359413 200.32134705 183.18759847 206.07837438 180 212 C179.34 212 178.68 212 178 212 C177.731875 212.845625 177.46375 213.69125 177.1875 214.5625 C175.9521405 218.13854067 174.523012 221.53860908 173 225 C172.34 225 171.68 225 171 225 C170.690625 225.78375 170.38125 226.5675 170.0625 227.375 C169 230 169 230 168 232 C164.90943762 230.66231239 163.21166407 229.35447664 161.22265625 226.6484375 C160.71621582 225.97063232 160.20977539 225.29282715 159.68798828 224.59448242 C158.88337158 223.49583862 158.88337158 223.49583862 158.0625 222.375 C156.89667671 220.8148008 155.72865327 219.25624354 154.55859375 217.69921875 C153.96546387 216.90950684 153.37233398 216.11979492 152.76123047 215.30615234 C150.13232546 211.86386836 147.38336845 208.52624144 144.625 205.1875 C139.04191061 198.39929898 133.76080527 191.41160342 128.52050781 184.35668945 C124.73760833 179.27653082 120.87186826 174.28813584 116.875 169.375 C110.825864 161.91739639 105.25928939 154.14094164 99.67529297 146.33251953 C91.92516155 135.54196932 83.95877198 124.9170456 75.875 114.375 C69.47827522 106.02612246 63.33711713 97.53424709 57.33203125 88.90087891 C55.68677355 86.55300933 54.00727799 84.23121447 52.32519531 81.90966797 C47.69987875 75.51363421 43.26215814 68.99893885 38.875 62.4375 C38.31312988 61.59928711 37.75125977 60.76107422 37.17236328 59.89746094 C32.608888 53.03567044 28.29389132 46.03272804 24 39 C22.63230893 36.77424871 21.26382011 34.54898743 19.89453125 32.32421875 C17.84158326 28.9864593 15.78864289 25.64869573 13.73632812 22.31054688 C10.17853657 16.52699545 6.60826563 10.75220598 3 5 C2.01 5.495 2.01 5.495 1 6 C0.67 4.02 0.34 2.04 0 0 Z " fill="#C9B89D" transform="translate(281,230)"/>
<path d="M0 0 C0.66 0 1.32 0 2 0 C1.34 2.97 0.68 5.94 0 9 C-0.66 8.34 -1.32 7.68 -2 7 C-2.55945313 7.83917969 -3.11890625 8.67835938 -3.6953125 9.54296875 C-4.07494141 10.11233154 -4.45457031 10.68169434 -4.84570312 11.26831055 C-5.71188788 12.56775299 -6.57776428 13.86740102 -7.44335938 15.16723633 C-10.19196202 19.29347597 -12.94799615 23.4145955 -15.7109375 27.53125 C-16.3385498 28.46815674 -16.96616211 29.40506348 -17.61279297 30.37036133 C-18.85736737 32.22820661 -20.10374726 34.08484384 -21.35205078 35.94018555 C-21.92681152 36.799104 -22.50157227 37.65802246 -23.09375 38.54296875 C-23.60615234 39.30633545 -24.11855469 40.06970215 -24.64648438 40.85620117 C-25.9089478 42.85578475 -26.98543004 44.86583151 -28 47 C-28.495 45.515 -28.495 45.515 -29 44 C-29.99 44.495 -29.99 44.495 -31 45 C-29.62803315 42.11963654 -28.07523393 39.50911111 -26.27734375 36.875 C-25.74318848 36.09181396 -25.2090332 35.30862793 -24.65869141 34.50170898 C-24.09069824 33.67614502 -23.52270508 32.85058105 -22.9375 32 C-22.35403809 31.14929932 -21.77057617 30.29859863 -21.16943359 29.42211914 C-17.24492236 23.72968847 -13.20813679 18.1574705 -9.00390625 12.66796875 C-6.34045758 9.12189577 -3.86580849 5.45781135 -1.41015625 1.765625 C-0.71212891 0.89164063 -0.71212891 0.89164063 0 0 Z " fill="#D6C7AD" transform="translate(792,231)"/>
<path d="M0 0 C1.1218098 3.36542939 0.88125902 4.15100362 -0.14453125 7.421875 C-0.40943359 8.28296875 -0.67433594 9.1440625 -0.94726562 10.03125 C-1.23279297 10.9284375 -1.51832031 11.825625 -1.8125 12.75 C-2.361 14.51552471 -2.90918291 16.28114797 -3.45703125 18.046875 C-3.72080566 18.88798828 -3.98458008 19.72910156 -4.25634766 20.59570312 C-5.22181834 23.71715923 -6.11889027 26.85379356 -7 30 C-7.66 29.01 -8.32 28.02 -9 27 C-9.99 28.32 -10.98 29.64 -12 31 C-11.42893115 26.79147084 -10.44309604 23.26483458 -8.75 19.375 C-8.3065625 18.34503906 -7.863125 17.31507813 -7.40625 16.25390625 C-6.9421875 15.18011719 -6.478125 14.10632813 -6 13 C-4.66750609 9.76870227 -3.34116679 6.53493542 -2.015625 3.30078125 C-1 1 -1 1 0 0 Z " fill="#252E3D" transform="translate(261,241)"/>
<path d="M0 0 C3.42250166 1.40504144 4.86428103 2.85442381 6.76953125 6 C7.26300049 6.80050781 7.75646973 7.60101563 8.26489258 8.42578125 C8.77560303 9.27527344 9.28631348 10.12476563 9.8125 11 C10.87282222 12.73050294 11.93530756 14.45968241 13 16.1875 C13.51175781 17.01894531 14.02351563 17.85039062 14.55078125 18.70703125 C16.84752481 22.34096243 19.37408894 25.77503451 21.98828125 29.1875 C22.32214844 29.785625 22.65601563 30.38375 23 31 C22.67 31.99 22.34 32.98 22 34 C19.472686 31.67513477 17.75946184 29.21226941 15.96875 26.2890625 C15.12376953 24.91621094 15.12376953 24.91621094 14.26171875 23.515625 C13.68035156 22.56171875 13.09898437 21.6078125 12.5 20.625 C11.91863281 19.67882812 11.33726562 18.73265625 10.73828125 17.7578125 C8.13634332 13.51849945 5.55510714 9.26771435 3 5 C2.01 5.495 2.01 5.495 1 6 C0.67 4.02 0.34 2.04 0 0 Z " fill="#DBCCB3" transform="translate(281,230)"/>
<path d="M0 0 C0.66 1.32 1.32 2.64 2 4 C1.23816406 4.93199219 0.47632813 5.86398437 -0.30859375 6.82421875 C-6.32343911 14.23575147 -12.01506488 21.7042471 -17.2578125 29.68359375 C-17.83273437 30.44800781 -18.40765625 31.21242188 -19 32 C-19.66 32 -20.32 32 -21 32 C-19.44655549 27.29502725 -16.83540249 23.82976045 -13.875 19.9375 C-9.01051354 13.43461909 -4.42664322 6.81119601 0 0 Z " fill="#242D3C" transform="translate(560,946)"/>
<path d="M0 0 C4.19330634 3.71954337 6.97451671 8.27570953 10 12.9375 C11.03944387 14.5313997 12.08105792 16.12388657 13.125 17.71484375 C13.85783203 18.83415283 13.85783203 18.83415283 14.60546875 19.97607422 C16.09201285 22.20507358 16.09201285 22.20507358 18.4375 24.87890625 C18.953125 25.57886719 19.46875 26.27882813 20 27 C19.67 27.99 19.34 28.98 19 30 C16.78625945 27.19171977 14.58005407 24.37760425 12.375 21.5625 C11.75753906 20.77939453 11.14007812 19.99628906 10.50390625 19.18945312 C7.40184797 15.22208385 4.36686248 11.21466457 1.4765625 7.08984375 C0.97463379 6.37562256 0.47270508 5.66140137 -0.04443359 4.92553711 C-1 3 -1 3 0 0 Z " fill="#242D3C" transform="translate(511,946)"/>
<path d="M0 0 C4.08861216 1.36287072 5.23798431 4.11306778 7.375 7.625 C8.17186423 8.90186193 8.97002974 10.17791273 9.76953125 11.453125 C10.15189941 12.06607422 10.53426758 12.67902344 10.92822266 13.31054688 C12.82625364 16.30243171 14.89677212 19.15046546 17 22 C16.67 22.66 16.34 23.32 16 24 C10.39152561 21.53924341 8.16800423 17.06168409 5.1875 12 C4.68541016 11.18015625 4.18332031 10.3603125 3.66601562 9.515625 C0 3.41058673 0 3.41058673 0 0 Z " fill="#D3C4AA" transform="translate(303,263)"/>
<path d="M0 0 C0.33 0.66 0.66 1.32 1 2 C-0.29296875 4.42578125 -0.29296875 4.42578125 -2.1875 7.3125 C-3.10595703 8.72982422 -3.10595703 8.72982422 -4.04296875 10.17578125 C-5.92918333 12.89780348 -7.81188458 15.51288744 -10 18 C-11.66666667 18 -13.33333333 18 -15 18 C-13.07040744 15.36910313 -11.13000507 12.74637362 -9.1875 10.125 C-8.64029297 9.37863281 -8.09308594 8.63226563 -7.52929688 7.86328125 C-6.99755859 7.14785156 -6.46582031 6.43242187 -5.91796875 5.6953125 C-5.43094482 5.03547363 -4.9439209 4.37563477 -4.44213867 3.69580078 C-3 2 -3 2 0 0 Z " fill="#D0C0A6" transform="translate(763,274)"/>
<path d="M0 0 C0.99 0.33 1.98 0.66 3 1 C3 1.66 3 2.32 3 3 C3.99 3.33 4.98 3.66 6 4 C8.50884408 7.83705564 10.73253618 11.31938316 11 16 C10.34 16.66 9.68 17.32 9 18 C6.36 13.05 3.72 8.1 1 3 C0.34 3 -0.32 3 -1 3 C-0.67 2.01 -0.34 1.02 0 0 Z " fill="#BCB3A1" transform="translate(535,287)"/>
<path d="M0 0 C0.66 0 1.32 0 2 0 C1.34 2.97 0.68 5.94 0 9 C-0.66 8.34 -1.32 7.68 -2 7 C-3.98 9.97 -5.96 12.94 -8 16 C-8.99 15.67 -9.98 15.34 -11 15 C-10.28972656 14.08476562 -9.57945312 13.16953125 -8.84765625 12.2265625 C-7.91918172 11.02611058 -6.99080118 9.82558597 -6.0625 8.625 C-5.59392578 8.02171875 -5.12535156 7.4184375 -4.64257812 6.796875 C-2.09448545 3.54591619 -2.09448545 3.54591619 0 0 Z " fill="#DACFBB" transform="translate(792,231)"/>
<path d="M0 0 C0.66 0 1.32 0 2 0 C2.89401475 2.24403702 3.76515289 4.49290133 4.625 6.75 C4.88023437 7.38421875 5.13546875 8.0184375 5.3984375 8.671875 C7.19059227 13.45095438 7.19059227 13.45095438 6.1484375 16.453125 C5.76945313 16.96359375 5.39046875 17.4740625 5 18 C4.67 18 4.34 18 4 18 C2.68 12.06 1.36 6.12 0 0 Z " fill="#273242" transform="translate(823,246)"/>
<path d="M0 0 C0.66 0 1.32 0 2 0 C3.61628827 2.05224125 5.10020727 4.09236744 6.5625 6.25 C6.97435547 6.83652344 7.38621094 7.42304687 7.81054688 8.02734375 C9.80666465 10.93494575 11.50113124 13.46415824 12 17 C7.51385653 12.78574401 3.36022588 8.17106807 0 3 C0 2.01 0 1.02 0 0 Z " fill="#283545" transform="translate(519,959)"/>
<path d="M0 0 C3.71279784 1.44386582 4.9486443 3.12236392 6.75 6.625 C7.17796875 7.44226563 7.6059375 8.25953125 8.046875 9.1015625 C8.51867187 10.04128906 8.51867187 10.04128906 9 11 C8.01 11.495 8.01 11.495 7 12 C5.02 8.535 5.02 8.535 3 5 C2.01 5.495 2.01 5.495 1 6 C0.67 4.02 0.34 2.04 0 0 Z " fill="#E3D9C6" transform="translate(281,230)"/>
<path d="M0 0 C0.66 0.66 1.32 1.32 2 2 C0.71632558 3.83893824 -0.57716761 5.67102625 -1.875 7.5 C-2.95394531 9.03140625 -2.95394531 9.03140625 -4.0546875 10.59375 C-4.69664062 11.3878125 -5.33859375 12.181875 -6 13 C-6.66 13 -7.32 13 -8 13 C-6.40956621 7.91061189 -3.2553049 4.12543357 0 0 Z " fill="#2B394B" transform="translate(547,965)"/>
<path d="M0 0 C1.18414294 3.55242882 0.69535532 4.69830562 -0.4375 8.1875 C-0.72496094 9.08855469 -1.01242187 9.98960937 -1.30859375 10.91796875 C-1.53675781 11.60503906 -1.76492188 12.29210937 -2 13 C-4 10 -4 10 -3.57421875 7.7734375 C-3.28160156 6.98195312 -2.98898437 6.19046875 -2.6875 5.375 C-2.40261719 4.57835937 -2.11773437 3.78171875 -1.82421875 2.9609375 C-1 1 -1 1 0 0 Z " fill="#2C3A4C" transform="translate(261,241)"/>
<path d="M0 0 C0.99 0.33 1.98 0.66 3 1 C0.36 3.64 -2.28 6.28 -5 9 C-5.66 8.67 -6.32 8.34 -7 8 C-4.69 5.36 -2.38 2.72 0 0 Z " fill="#DCD7CB" transform="translate(358,141)"/>
<path d="M0 0 C0.99 0.33 1.98 0.66 3 1 C3.94921875 3.06640625 3.94921875 3.06640625 4.6875 5.5625 C4.93886719 6.38878906 5.19023438 7.21507812 5.44921875 8.06640625 C5.63097656 8.70449219 5.81273437 9.34257812 6 10 C3.70886268 7.8092961 2.3024333 5.90542812 1 3 C0.34 3 -0.32 3 -1 3 C-0.67 2.01 -0.34 1.02 0 0 Z " fill="#777E82" transform="translate(535,287)"/>
<path d="M0 0 C0.66 0 1.32 0 2 0 C3.83691257 3.78187881 4.15837626 5.94568308 3 10 C1.11608215 6.73454239 0.50712033 3.71888239 0 0 Z " fill="#2B394A" transform="translate(823,246)"/>
</svg>
